<?xml version="1.0" encoding="utf-8"?>
<!-- Generator: Adobe Illustrator 25.4.1, SVG Export Plug-In . SVG Version: 6.00 Build 0)  -->
<svg version="1.1" id="layer1" xmlns="http://www.w3.org/2000/svg" xmlns:xlink="http://www.w3.org/1999/xlink" x="0px" y="0px"
	 viewBox="0 0 33.5 20.5" style="enable-background:new 0 0 33.5 20.5;" xml:space="preserve">
<style type="text/css">
	.st0{enable-background:new    ;}
</style>
<g>
	<g id="layer2">
		<g class="st0">
			<path d="M8.2,18.5c-0.4,0-1.1,0-1.9-0.1c-0.8,0-1.4-0.1-2-0.1s-1.1,0-1.6,0s-1,0-1.4,0c0,0,0,0,0-0.1c0-0.1,0-0.1,0-0.1
				c0.7,0,1.2,0,1.5-0.1c0.3-0.1,0.5-0.2,0.7-0.5c0.1-0.2,0.2-0.7,0.2-1.2v-12c0-0.5-0.1-0.9-0.2-1.1C3.4,2.9,3.2,2.6,2.8,2.5
				C2.5,2.5,2,2.4,1.3,2.4c0,0,0,0,0-0.1s0-0.1,0-0.1c0.4,0,0.9,0,1.4,0s1.1,0,1.6,0s1.2,0,1.7-0.1C6.8,2.1,7.3,2,7.7,2
				c1.9,0,3.5,0.3,4.9,1.1s2.5,1.6,3.3,2.8s1.2,2.5,1.2,4c0,1.3-0.2,2.5-0.7,3.6s-1.1,2-2,2.7c-0.9,0.8-1.7,1.3-2.8,1.7
				C10.5,18.3,9.4,18.5,8.2,18.5z M7.9,18.2c1.4,0,2.7-0.3,3.9-0.9c1.1-0.5,2-1.4,2.6-2.6c0.7-1.1,1-2.5,1-4.1
				c0-1.5-0.3-2.9-0.9-4.1S13.1,4.3,12,3.5S9.6,2.4,8.1,2.4C7,2.4,6.2,2.5,5.8,2.8S5,3.5,5,4.3V16c0,0.8,0.2,1.3,0.5,1.6
				C6,18.1,6.8,18.2,7.9,18.2z"/>
		</g>
	</g>
	<g id="layer2_00000088835521607848048630000018217530297981531551_">
		<g class="st0">
			<path d="M23.7,16.6c0,0.6,0.1,0.9,0.2,1.3c0.1,0.2,0.5,0.5,1,0.6c0.5,0.1,1.3,0.1,2.2,0.1c0,0,0.1,0,0.1,0.1s0,0.1-0.1,0.1
				c-0.6,0-1.3,0-1.9,0c-0.7,0-1.5,0-2.3,0c-0.6,0-1.1,0-1.7,0c-0.6,0-1,0-1.5,0c0,0,0,0,0-0.1s0-0.1,0-0.1c0.7,0,1.3,0,1.6-0.1
				c0.3-0.1,0.6-0.2,0.7-0.6c0.1-0.2,0.2-0.7,0.2-1.3V4.1c0-0.6-0.1-0.9-0.2-1.1c-0.1-0.3-0.3-0.6-0.7-0.7s-0.8-0.1-1.5-0.1
				c0,0,0,0,0-0.1c0-0.1,0-0.1,0-0.1c0.5,0,0.9,0,1.5,0s1.1,0,1.7,0c0.5,0,1,0,1.7-0.1c0.7,0,1.4-0.1,2.1-0.1c1,0,1.9,0.1,2.7,0.5
				C30.3,2.5,31,3,31.5,3.7c0.5,0.7,0.7,1.5,0.7,2.6c0,0.9-0.2,1.8-0.6,2.5c-0.3,0.7-0.8,1.3-1.5,1.7c-0.6,0.5-1.3,0.8-1.9,1
				c-0.7,0.2-1.4,0.3-2.1,0.3c-0.2,0-0.5,0-0.7,0s-0.5,0-0.7-0.1c-0.1,0-0.1-0.1-0.1-0.2c0-0.1,0.1-0.1,0.1-0.1
				c0.1,0,0.3,0.1,0.5,0.1c0.2,0,0.3,0,0.5,0c0.8,0,1.6-0.1,2.3-0.5c0.7-0.3,1.3-0.8,1.7-1.5C30.1,8.9,30.3,8,30.3,7
				s-0.2-1.8-0.6-2.5c-0.3-0.7-0.9-1.3-1.6-1.6c-0.5-0.6-1.3-0.7-2.1-0.7c-0.7,0-1.1,0-1.5,0.1c-0.3,0.1-0.6,0.2-0.7,0.5
				c-0.2,0.2-0.2,0.7-0.2,1.4V16.6z"/>
		</g>
	</g>
</g>
</svg>
